# xmcd
#
# Track frame offsets: 
#        150
#        12512
#        25157
#        35665
#        49805
#        62387
#        77385
#        90127
#        103547
#        117442
#        131862
#        147130
#        162067
#        174965
#        187900
#        198280
#        211207
#        221915
#        230675
#        244212
#        257420
#        268840
#
# Disc length: 3813 seconds
#
# Revision: 0
# Processed by: cddbd v1.5.2PL0 Copyright (c) Steve Scherf et al.
# Submitted via: ExactAudioCopyFreeDBPlugin 1.0
#
DISCID=290ee316
DTITLE=The Statler Brothers - Sing Country Symphonies in E Major and Car
DTITLE=ry Me Back
DYEAR=2012
DGENRE=Country
TTITLE0=Monday Morning Secretary
TTITLE1=Burning Bridges
TTITLE2=I Want To Carry Your Sweet Memories
TTITLE3=I Believe In Music
TTITLE4=A Special Song For Wanda
TTITLE5=I'll Be Your Baby Tonight
TTITLE6=Woman Without A Home
TTITLE7=Delta Dawn
TTITLE8=Wedding Bells
TTITLE9=Too Many Rivers
TTITLE10=They Can't Take You Out Of Me
TTITLE11=Carry Me Back
TTITLE12=Woman I Still Love
TTITLE13=What Do I Care
TTITLE14=If We Never Had
TTITLE15=Take Good Care Of Her
TTITLE16=Streets Of San Francisco
TTITLE17=Whatever Happened To Randolph Scott
TTITLE18=I Wish I Could Be
TTITLE19=We Owe It All To Yesterday
TTITLE20=When I Stop Dreaming
TTITLE21=The Strand
EXTD=
EXTT0=
EXTT1=
EXTT2=
EXTT3=
EXTT4=
EXTT5=
EXTT6=
EXTT7=
EXTT8=
EXTT9=
EXTT10=
EXTT11=
EXTT12=
EXTT13=
EXTT14=
EXTT15=
EXTT16=
EXTT17=
EXTT18=
EXTT19=
EXTT20=
EXTT21=
PLAYORDER=
